<?xml version="1.0" encoding="utf-8"?>
<!-- Generator: Adobe Illustrator 24.0.3, SVG Export Plug-In . SVG Version: 6.00 Build 0)  -->
<svg version="1.1" id="Layer_1" xmlns="http://www.w3.org/2000/svg" xmlns:xlink="http://www.w3.org/1999/xlink" x="0px" y="0px"
	 viewBox="0 0 88 88" style="enable-background:new 0 0 88 88;" xml:space="preserve">
<style type="text/css">
	.st0{fill:#FFFFFF;}
	.st1{fill:#625DF5;}
</style>
<g>
	
		<image style="overflow:visible;opacity:0.25;" width="85" height="84" xlink:href="BE7F08FEFD25BEF0.png"  transform="matrix(1 0 0 1 1.7688 3.7838)">
	</image>
	<g>
		<circle class="st0" cx="44" cy="44" r="37.2"/>
	</g>
</g>
<path class="st1" d="M72.8,40.5H56.9l13.8-8l-3.5-6l-13.8,8l8-13.8l-6-3.5l-8,13.8V15.2h-6.9v15.9l-8-13.8l-6,3.5l8,13.8l-13.8-8
	l-3.5,6l13.8,8H15.2v6.9h15.9l-13.8,8l3.5,6l13.8-8l-8,13.8l6,3.5l8-13.8v15.9h6.9V56.9l8,13.8l6-3.5l-8-13.8l13.8,8l3.5-6l-13.8-8
	h15.9V40.5z M44,52.8c-4.9,0-8.8-3.9-8.8-8.8c0-4.9,3.9-8.8,8.8-8.8s8.8,3.9,8.8,8.8C52.8,48.9,48.9,52.8,44,52.8z"/>
</svg>
